# AST/ASF file generated using VICON BodyLanguage
# -----------------------------------------------
:version 1.10
:name VICON
:units
  mass 1.0
  length 0.45
  angle deg
:documentation
   .ast/.asf automatically generated from VICON data using
   VICON BodyBuilder and BodyLanguage model FoxedUp or BRILLIANT.MOD
:root
   order TX TY TZ RX RY RZ
   axis XYZ
   position 0 0 0  
   orientation 0 0 0 
:bonedata
  begin
     id 1 
     name lhipjoint
     direction 0.543289 -0.788407 0.288535 
     length 2.57127 
     axis 0 0 0  XYZ
  end
  begin
     id 2 
     name lfemur
     direction 0.34202 -0.939693 0  
     length 8.47298  
     axis 0 0 20  XYZ
    dof rx ry rz
    limits (-160.0 20.0)
           (-70.0 70.0)
           (-60.0 70.0)
  end
  begin
     id 3 
     name ltibia
     direction 0.34202 -0.939693 0   
     length 8.13367   
     axis 0 0 20   XYZ
    dof rx
    limits (-10.0 170.0)
  end
  begin
     id 4 
     name lfoot
     direction 0.114037 -0.313314 0.942778   
     length 2.67113   
     axis -90 7.62852e-016 20   XYZ
    dof rx rz
    limits (-45.0 90.0)
           (-70.0 20.0)
  end
  begin
     id 5 
     name ltoes
     direction 1.536e-011 -4.21847e-011 1   
     length 1.32217   
     axis -90 7.62852e-016 20   XYZ
    dof rx
    limits (-90.0 20.0)
  end
  begin
     id 6 
     name rhipjoint
     direction -0.571293 -0.770752 0.282074   
     length 2.63017  
     axis 0 0 0  XYZ 
  end
  begin
     id 7 
     name rfemur
     direction -0.34202 -0.939693 0   
     length 8.60885   
     axis 0 0 -20   XYZ
    dof rx ry rz
    limits (-160.0 20.0)
           (-70.0 70.0)
           (-70.0 60.0)
  end
  begin
     id 8 
     name rtibia
     direction -0.34202 -0.939693 0   
     length 8.07673   
     axis 0 0 -20   XYZ
    dof rx
    limits (-10.0 170.0)
 end
 begin
     id 9 
     name rfoot
     direction -0.121336 -0.333368 0.934956   
     length 2.81602  
     axis -90 -7.62852e-016 -20   XYZ
    dof rx rz
    limits (-45.0 90.0)
           (-20.0 70.0)
  end
  begin
     id 10 
     name rtoes
     direction -1.53491e-011 -4.21808e-011 1   
     length 1.38905   
     axis -90 -7.62852e-016 -20   XYZ
    dof rx
    limits (-90.0 20.0)
  end
  begin
     id 11 
     name lowerback
     direction 0.0136776 0.999869 -0.00861835   
     length 2.14087   
     axis 0 0 0   XYZ
    dof rx ry rz
    limits (-20.0 45.0)
           (-30.0 30.0)
           (-30.0 30.0)
  end
  begin
     id 12 
     name upperback
     direction -0.00789158 0.999804 0.0181308   
     length 2.14151   
     axis 0 0 0   XYZ
    dof rx ry rz
    limits (-20.0 45.0)
           (-30.0 30.0)
           (-30.0 30.0)
  end
  begin
     id 13 
     name thorax
     direction -0.0135231 0.999666 0.0220247   
     length 2.13644   
     axis 0 0 0   XYZ
    dof rx ry rz
    limits (-20.0 45.0)
           (-30.0 30.0)
           (-30.0 30.0)
  end
  begin
     id 14 
     name lowerneck
     direction -0.0392259 0.997317 0.0618018   
     length 1.65045   
     axis 0 0 0   XYZ
    dof rx ry rz
    limits (-20.0 45.0)
           (-30.0 30.0)
           (-30.0 30.0)
  end
  begin
     id 15 
     name upperneck
     direction 0.0765547 0.994276 -0.0745319   
     length 1.66045   
     axis 0 0 0   XYZ
    dof rx ry rz
    limits (-20.0 45.0)
           (-30.0 30.0)
           (-30.0 30.0)
  end
  begin
     id 16
     name head
     direction 0.0241564 0.999031 -0.036785  
     length 1.66594  
     axis 0 0 0   XYZ
    dof rx ry rz
    limits (-20.0 45.0)
           (-30.0 30.0)
           (-30.0 30.0)
  end
  begin
     id 17 
     name lclavicle
     direction 0.967398 0.249018 0.0461573  
     length 3.75176  
     axis 0 0 0   XYZ
    dof ry rz
    limits (-20.0 10.0)
           (0.0 20.0)
  end
  begin
     id 18 
     name lhumerus
     direction 1 -4.48963e-011 -3.05005e-027   
     length 5.93342   
     axis 180 -30 -90   XYZ
    dof rx ry rz
    limits (-60.0 90.0)
           (-90.0 90.0)
           (-90.0 90.0)
  end
  begin
     id 19
     name lradius
     direction 1 -4.48957e-011 1.07006e-026   
     length 3.94763   
     axis 180 -30 -90   XYZ
    dof rx
    limits (-10.0 170.0)
  end
  begin
     id 20
     name lwrist
     direction 1 -4.48978e-011 1.92422e-026   
     length 1.97382   
     axis -1.18182e-014 90 90   XYZ
    dof ry
    limits (-180.0 0.0)
 end
  begin
     id 21 
     name lhand
     direction 1 -4.48931e-011 3.84844e-026   
     length 0.560187   
     axis -2.45563e-014 90 90   XYZ
    dof rx rz
    limits (-90.0 90.0)
           (-45.0 45.0)
  end
  begin
     id 22 
     name lfingers
     direction 1 -4.48952e-011 7.69687e-026   
     length 0.451637   
     axis -4.91126e-014 90 90   XYZ
    dof rx
    limits (0.0 90.0)
  end
  begin
     id 23
     name lthumb
     direction 0.707107 -6.34901e-011 0.707107   
     length 0.648463   
     axis -90 45 2.85299e-015   XYZ
    dof rx rz
    limits (-45.0 45.0)
           (-45.0 45.0)
  end
  begin
     id 24 
     name rclavicle
     direction -0.965946 0.258716 0.00371831   
     length 3.63667  
     axis 0 0 0   XYZ 
    dof ry rz
    limits (-10.0 20.0)
           (-20.0 0.0)
  end
  begin
     id 25 
     name rhumerus
     direction -1 -4.48966e-011 -1.78361e-028  
     length 6.28647   
     axis 180 30 90   XYZ
    dof rx ry rz
    limits (-90.0 60.0)
           (-90.0 90.0)
           (-90.0 90.0)
  end
  begin
     id 26 
     name rradius
     direction -1 -4.48961e-011 1.05248e-026   
     length 3.81645   
     axis 180 30 90   XYZ
    dof rx
    limits (-10.0 170.0)
  end
  begin
     id 27 
     name rwrist
     direction -1 -4.48979e-011 1.92422e-026   
     length 1.90822   
     axis -1.18182e-014 -90 -90   XYZ
    dof ry
    limits (-180.0 0.0)
  end
  begin
     id 28
     name rhand
     direction -1 -4.48937e-011 3.84844e-026   
     length 0.646185   
     axis -2.45563e-014 -90 -90   XYZ
    dof rx rz
    limits (-90.0 90.0)
           (-45.0 45.0)
  end
  begin
     id 29
     name rfingers
     direction -1 -4.48953e-011 7.69687e-026   
     length 0.520971   
     axis -4.91126e-014 -90 -90   XYZ
    dof rx
    limits (0.0 90.0)
  end
  begin
     id 30
     name rthumb
     direction -0.707107 -6.3494e-011 0.707107   
     length 0.748013   
     axis -90 -45 -2.85299e-015   XYZ
    dof rx rz
    limits (-45.0 45.0)
           (-45.0 45.0)
  end
:hierarchy
  begin
    root lhipjoint rhipjoint lowerback
    lhipjoint lfemur
    lfemur ltibia
    ltibia lfoot
    lfoot ltoes
    rhipjoint rfemur
    rfemur rtibia
    rtibia rfoot
    rfoot rtoes
    lowerback upperback
    upperback thorax
    thorax lowerneck lclavicle rclavicle
    lowerneck upperneck
    upperneck head
    lclavicle lhumerus
    lhumerus lradius
    lradius lwrist
    lwrist lhand lthumb
    lhand lfingers
    rclavicle rhumerus
    rhumerus rradius
    rradius rwrist
    rwrist rhand rthumb
    rhand rfingers
  end

#!OML:ASF H:\HAZMAT1\Patient Classification 1\Patient 3\Session 1\dancer.ASF
:FULLY-SPECIFIED
:DEGREES
137
upperback 7.166800 -6.701470 2.683580
rfoot 0.319460 -11.546500
lradius 32.698898
lthumb 1.987200 56.109100
rradius 39.207699
lwrist 1.470880
rhand -17.888700 -383.328003
rhumerus 93.463097 -2.215200 -49.590698
lowerneck -3.701640 -2.272710 -2.335910
lhand -24.507500 386.139008
ltibia 57.150799
head 14.012500 1.948050 0.242100
rwrist -13.878300
lfingers 7.125020
rtoes -1.642800
lowerback 1.691790 -5.238000 5.007230
rfingers 7.125020
lclavicle -0.000000 0.000000
upperneck 39.113602 2.766700 -2.089010
rfemur -67.445900 -24.736200 43.103100
thorax 6.273410 -2.894530 -0.185181
rclavicle -0.000000 0.000000
rtibia 65.122597
lfoot -28.338301 8.289640
lhumerus 89.234001 8.574440 56.351299
rthumb 8.377770 -53.142300
root 1.786230 17.900600 15.561600 -167.492996 18.448900 -540.885986
ltoes 18.917999
lfemur -42.708599 -348.088013 -38.368999
138
upperback 3.908990 -6.466200 4.070570
rfoot 4.882940 1.716780
lradius 50.346500
lthumb 18.802799 35.234699
rradius 56.568802
lwrist 8.962700
rhand -12.568500 -374.390991
rhumerus 80.749298 -26.196400 -37.826900
lowerneck -2.170690 -2.936340 -2.019140
lhand -7.070730 366.122986
ltibia 54.388802
head 13.305100 1.661050 0.415355
rwrist -27.941999
lfingers 7.125020
rtoes -8.109420
lowerback -0.448701 -4.868820 5.590380
rfingers 7.125020
lclavicle -0.000000 -0.000000
upperneck 38.365299 1.239880 -1.127290
rfemur -43.310600 -31.322701 19.519501
thorax 4.153330 -2.952830 0.867012
rclavicle -0.000000 -0.000000
rtibia 79.572403
lfoot -30.333300 14.274700
lhumerus 69.563904 33.693501 32.948700
rthumb 13.509200 -43.933300
root 2.651760 18.089500 15.820200 -176.682999 16.808100 -535.857971
ltoes 21.594900
lfemur -28.967300 -351.414001 -27.097601
139
upperback -3.663200 -2.207260 0.966906
rfoot -18.193100 -19.309900
lradius 48.237301
lthumb 22.063299 39.845200
rradius 61.068802
lwrist 25.836800
rhand -13.020000 -376.983002
rhumerus 53.536701 -48.741100 -27.618401
lowerneck -2.606520 -1.846230 -0.787622
lhand -3.677840 371.084015
ltibia 57.286301
head 7.206000 -0.119903 0.672087
rwrist -40.581600
lfingers 7.125020
rtoes -19.194599
lowerback -3.379820 -1.719220 6.662850
rfingers 7.125020
lclavicle -0.000000 0.000000
upperneck 22.124701 -1.542650 1.775020
rfemur -9.869130 -35.717400 18.047899
thorax -2.118490 -1.166240 -2.760900
rclavicle -0.000000 0.000000
rtibia 67.907303
lfoot -31.271799 13.725700
lhumerus 43.830200 53.080601 20.515800
rthumb 13.073900 -46.552799
root 3.312700 18.004000 16.099300 -178.496994 20.734100 -533.987976
ltoes 17.308800
lfemur -27.818800 -345.088989 -22.017700
140
upperback -7.194270 -0.047381 -0.739736
rfoot -43.315201 -23.076500
lradius 38.459000
lthumb 18.967899 46.377201
rradius 53.239399
lwrist 35.885899
rhand -18.893700 -380.683990
rhumerus 28.260201 -58.298698 -17.655500
lowerneck 1.426850 -1.336810 1.175380
lhand -6.899110 377.282013
ltibia 64.607201
head -4.977000 -0.373375 -0.426887
rwrist -50.043499
lfingers 7.125020
rtoes -2.320490
lowerback -4.890470 -0.300494 5.672740
rfingers 7.125020
lclavicle 0.000000 -0.000000
upperneck -15.760800 -1.237070 -0.866541
rfemur -5.110930 -25.765301 26.526300
thorax -4.777520 -0.132673 -3.965830
rclavicle 0.000000 -0.000000
rtibia 49.220600
lfoot -31.421400 12.755300
lhumerus 7.481940 69.456100 -0.661407
rthumb 7.407790 -50.533901
root 3.518900 17.615299 16.882799 -175.427994 33.621498 -533.041992
ltoes 15.082500
lfemur -35.862400 -335.127014 -20.139500
141
upperback -6.987500 -2.133130 -0.579058
rfoot -41.125099 -17.562799
lradius 33.469898
lthumb 15.836600 48.001801
rradius 47.598499
lwrist 32.112400
rhand -18.499701 -381.463989
rhumerus 17.934500 -52.372101 -14.571900
lowerneck 0.817746 -0.026385 2.709460
lhand -10.152700 378.628998
ltibia 70.756798
head -7.159390 0.871175 -0.978167
rwrist -48.368500
lfingers 7.125020
rtoes 3.850860
lowerback -4.607150 -1.803560 5.533540
rfingers 7.125020
lclavicle -0.000000 -0.000000
upperneck -23.058399 1.153820 -1.194290
rfemur -8.526320 -14.725700 29.516899
thorax -4.935080 -1.203710 -3.713140
rclavicle -0.000000 -0.000000
rtibia 50.549301
lfoot -25.044800 12.146800
lhumerus 17.876900 67.563004 17.712200
rthumb 7.788100 -51.300701
root 3.298340 17.587601 17.660400 -171.593994 49.426102 -528.690979
ltoes 3.720940
lfemur -38.065201 -331.437988 -12.858700
142
upperback -5.640480 -6.776860 0.275642
rfoot -32.847301 -8.532000
lradius 37.578999
lthumb 13.006300 49.145199
rradius 51.778801
lwrist 35.512501
rhand -19.266600 -381.419006
rhumerus 10.912000 -45.821201 -9.935460
lowerneck 0.972747 -3.057190 0.020324
lhand -13.090200 379.571014
ltibia 68.137299
head -5.930000 -1.551820 1.018580
rwrist -46.224300
lfingers 7.125020
rtoes 2.475280
lowerback -3.262880 -5.185260 4.488490
rfingers 7.125020
lclavicle -0.000000 -0.000000
upperneck -19.263599 -3.205070 2.761230
rfemur -17.024799 4.646860 22.902599
thorax -4.520400 -3.497570 -2.129120
rclavicle -0.000000 -0.000000
rtibia 52.536800
lfoot -16.416201 -0.125171
lhumerus 30.872400 56.946701 32.624199
rthumb 7.047830 -51.281399
root 2.500520 18.084101 17.340200 -159.576996 78.460098 -520.705017
ltoes -9.099060
lfemur -27.396601 -346.614014 -7.473850
143
upperback -4.480460 -5.627900 2.919050
rfoot -18.795401 -5.010500
lradius 37.433300
lthumb 12.111900 49.554600
rradius 56.706799
lwrist 34.387901
rhand -18.881201 -381.890991
rhumerus 17.573000 -42.662201 -14.224300
lowerneck 0.038829 -9.837710 -5.537560
lhand -14.017900 379.924988
ltibia 49.625099
head -3.233310 -6.305860 3.245290
rwrist -49.130699
lfingers 7.125020
rtoes -17.055401
lowerback -0.219891 -4.426130 5.515880
rfingers 7.125020
lclavicle -0.000000 -0.000000
upperneck -12.346200 -12.767700 6.117240
rfemur -34.282501 5.563570 19.329800
thorax -4.764700 -2.931380 0.190082
rclavicle -0.000000 -0.000000
rtibia 43.504902
lfoot -22.190001 9.532990
lhumerus 24.552700 56.988998 24.289801
rthumb 7.419810 -51.740700
root 1.848630 19.129801 15.436600 2.348860 44.729698 -366.894989
ltoes -5.590110
lfemur -20.279800 -373.924011 -14.322200
